<svg width="16" height="16" viewBox="0 0 16 16" fill="none" xmlns="http://www.w3.org/2000/svg">
<g clip-path="url(#clip0)">
<path d="M8.00063 16.0003C12.4187 16.0003 16.0003 12.4187 16.0003 8.00064C16.0003 3.58255 12.4187 0.000976562 8.00063 0.000976562C3.58254 0.000976562 0.000976562 3.58255 0.000976562 8.00064C0.000976562 12.4187 3.58254 16.0003 8.00063 16.0003Z" fill="white"/>
<path d="M15.5428 5.33252H10.6138C10.8279 7.04145 10.8291 8.92444 10.6179 10.6355H15.5533C15.8415 9.81003 15.9999 8.92356 15.9999 7.99994C16 7.06418 15.8379 6.16684 15.5428 5.33252Z" fill="#2B479D"/>
<path d="M10.6137 5.33253H15.5426C15.5419 5.33 15.5411 5.32787 15.5401 5.32557C14.5163 2.43866 11.8826 0.31466 8.71826 0.0327148C9.94292 0.703953 10.3006 2.83062 10.6137 5.33253Z" fill="#EFECEC"/>
<path d="M8.71875 15.9664C11.8888 15.684 14.5261 13.5526 15.546 10.658C15.5486 10.6503 15.5509 10.6427 15.5537 10.6353H10.6182C10.3075 13.1507 9.94831 15.2924 8.71875 15.9664Z" fill="#E63026"/>
<path d="M0 7.99994C0 8.92371 0.158656 9.81005 0.446512 10.6355H11.0296C11.2411 8.92432 11.2396 7.04146 11.0257 5.33252H0.457153C0.162067 6.16687 0 7.06422 0 7.99994Z" fill="#3757A6"/>
<path d="M0.459565 5.32569C0.458821 5.32795 0.458045 5.33011 0.457031 5.33265H11.0256C10.7124 2.8307 9.94283 0.70407 8.71834 0.0328323C8.48149 0.0118561 8.242 3.84997e-10 7.99974 3.84997e-10C4.51962 -3.37777e-05 1.56016 2.2226 0.459565 5.32569Z" fill="#EFEFEF"/>
<path d="M11.0299 10.6357H0.446777C0.449446 10.6432 0.451945 10.6508 0.454479 10.6585C1.55068 13.7695 4.5144 16 8.0001 16C8.24239 16 8.48187 15.9881 8.71869 15.9669C9.94838 15.2929 10.7193 13.1512 11.0299 10.6357Z" fill="#E73B36"/>
</g>
<defs>
<clipPath id="clip0">
<rect width="16" height="16" fill="white"/>
</clipPath>
</defs>
</svg>
