<svg width="209" height="37" viewBox="0 0 209 37" fill="none" xmlns="http://www.w3.org/2000/svg">
<path d="M53.6816 16.2286L54.0615 13.4236L54.0551 13.4109L38.8207 19.6161L35.718 17.3556C37.1237 15.0445 37.5796 12.1952 36.8261 9.45347L53.137 2.81135L53.5106 0.0633177L53.4853 0L35.889 7.16767C33.4386 2.81768 28.0628 0.854803 23.3139 2.78602C18.5714 4.71724 16.0956 9.87771 17.381 14.7026L0 21.7816L2.25415 23.5292L18.3054 16.9884C19.6858 19.4831 22.0286 21.2054 24.6626 21.8703L24.0358 25.6251L8.84563 31.8113L8.90261 31.9506L11.0238 33.5969L23.5545 28.4934L22.2818 36.079L24.9729 34.9835L26.2456 27.398L38.4724 22.4148L44.6903 26.9484L47.3813 25.853L41.1635 21.3194L53.6816 16.2286ZM24.251 5.07815C27.7272 3.65982 31.653 5.02117 33.5716 8.11112L19.7048 13.7591C18.9196 10.207 20.7749 6.49016 24.251 5.07815ZM20.6292 16.0513L26.0113 13.8605L25.0805 19.4262C23.2569 18.9196 21.6486 17.7419 20.6292 16.0513ZM28.3224 15.0129L32.1532 17.8052C31.5264 18.3624 30.8045 18.8246 29.9877 19.1602C29.1836 19.4895 28.3604 19.6604 27.5373 19.7048L28.3224 15.0129ZM26.7268 24.536L27.1194 22.1869C28.3858 22.1869 29.6711 21.9526 30.9185 21.446C32.1785 20.9331 33.274 20.1923 34.1857 19.2932L36.1296 20.7115L26.7268 24.536ZM33.7109 15.8866L29.1709 12.5751L34.515 10.3969C34.9582 12.3028 34.6416 14.253 33.7109 15.8866Z" fill="black"/>
<path d="M79.9596 12.6398V26.1963H77.2559V12.6398H72.3931V10.164H84.8225V12.6398H79.9596Z" fill="black"/>
<path d="M100.05 23.9863C98.4294 25.5693 96.4286 26.3608 94.0414 26.3608C91.6543 26.3608 89.6535 25.5693 88.0325 23.9863C86.4116 22.4034 85.6011 20.4278 85.6011 18.066C85.6011 15.7043 86.4116 13.7287 88.0325 12.1458C89.6535 10.5628 91.6543 9.7713 94.0414 9.7713C96.4286 9.7713 98.4294 10.5628 100.05 12.1458C101.671 13.7287 102.482 15.7043 102.482 18.066C102.482 20.4278 101.671 22.4034 100.05 23.9863ZM98.0685 13.9503C96.9731 12.8169 95.6307 12.2534 94.0414 12.2534C92.4521 12.2534 91.1098 12.8169 90.0144 13.9503C88.919 15.0837 88.3744 16.4577 88.3744 18.066C88.3744 19.6743 88.919 21.0547 90.0144 22.1818C91.1098 23.3152 92.4521 23.8787 94.0414 23.8787C95.6307 23.8787 96.9731 23.3152 98.0685 22.1818C99.1639 21.0483 99.7085 19.6807 99.7085 18.066C99.7085 16.4514 99.1576 15.0837 98.0685 13.9503Z" fill="black"/>
<path d="M107.921 26.2022H105.211V10.1699H109.435L114.272 20.2376L119.11 10.1699H123.308V26.2022H120.604V13.6777L115.007 24.8028H113.493L107.921 13.6777V26.2022Z" fill="black"/>
<path d="M141.176 23.7456C142.107 23.7456 142.911 23.5873 143.583 23.2771C144.254 22.9668 144.957 22.4603 145.691 21.7764L147.432 23.5683C145.735 25.4489 143.671 26.3923 141.252 26.3923C138.827 26.3923 136.82 25.6135 135.218 24.0496C133.622 22.4919 132.818 20.5164 132.818 18.1293C132.818 15.7421 133.635 13.7539 135.262 12.1646C136.89 10.5753 138.948 9.77753 141.436 9.77753C143.918 9.77753 145.995 10.6957 147.667 12.5319L145.944 14.4125C145.178 13.678 144.456 13.1651 143.779 12.8738C143.101 12.5825 142.297 12.4369 141.379 12.4369C139.758 12.4369 138.397 12.9625 137.295 14.0072C136.193 15.052 135.642 16.3943 135.642 18.0216C135.642 19.6489 136.187 21.0103 137.282 22.1057C138.384 23.2011 139.682 23.7456 141.176 23.7456Z" fill="black"/>
<path d="M163.452 15.3747C163.452 18.0214 162.299 19.6867 159.988 20.3769L164.186 26.2022H160.748L156.917 20.8138H153.359V26.2022H150.649V10.1699H156.613C159.057 10.1699 160.811 10.5815 161.869 11.4109C162.926 12.2278 163.452 13.5511 163.452 15.3747ZM159.849 17.6415C160.4 17.1666 160.672 16.4068 160.672 15.3557C160.672 14.3109 160.387 13.5891 159.824 13.2029C159.26 12.8103 158.247 12.6203 156.797 12.6203H153.359V18.357H156.734C158.26 18.357 159.298 18.1164 159.849 17.6415Z" fill="black"/>
<path d="M169.531 22.555L167.922 26.2022H165.035L172.101 10.1699H174.989L182.055 26.2022H179.168L177.559 22.555H169.531ZM176.458 20.0539L173.545 13.4498L170.632 20.0539H176.458Z" fill="black"/>
<path d="M186.892 12.69V17.097H194.003V19.598H186.892V26.2022H184.182V10.1699H194.871L194.845 12.69H186.892Z" fill="black"/>
<path d="M204.007 12.6398V26.1963H201.304V12.6398H196.441V10.164H208.876V12.6398H204.007Z" fill="black"/>
</svg>
