<svg width="217" height="37" viewBox="0 0 217 37" fill="none" xmlns="http://www.w3.org/2000/svg">
<path d="M53.6816 16.2286L54.0615 13.4236L54.0551 13.4109L38.8207 19.6161L35.718 17.3556C37.1237 15.0445 37.5796 12.1952 36.8261 9.45347L53.137 2.81135L53.5106 0.0633177L53.4853 0L35.889 7.16767C33.4386 2.81768 28.0628 0.854803 23.3139 2.78602C18.5714 4.71724 16.0956 9.87771 17.381 14.7026L0 21.7816L2.25415 23.5292L18.3054 16.9884C19.6858 19.4831 22.0286 21.2054 24.6626 21.8703L24.0358 25.6251L8.84563 31.8113L8.90261 31.9506L11.0238 33.5969L23.5545 28.4934L22.2818 36.079L24.9729 34.9835L26.2456 27.398L38.4724 22.4148L44.6903 26.9484L47.3813 25.853L41.1635 21.3194L53.6816 16.2286ZM24.251 5.07815C27.7272 3.65982 31.653 5.02117 33.5716 8.11112L19.7048 13.7591C18.9196 10.207 20.7749 6.49016 24.251 5.07815ZM20.6292 16.0513L26.0113 13.8605L25.0805 19.4262C23.2569 18.9196 21.6486 17.7419 20.6292 16.0513ZM28.3224 15.0129L32.1532 17.8052C31.5264 18.3624 30.8045 18.8246 29.9877 19.1602C29.1836 19.4895 28.3604 19.6604 27.5373 19.7048L28.3224 15.0129ZM26.7268 24.536L27.1194 22.1869C28.3858 22.1869 29.6711 21.9526 30.9185 21.446C32.1785 20.9331 33.274 20.1923 34.1857 19.2932L36.1296 20.7115L26.7268 24.536ZM33.7109 15.8866L29.1709 12.5751L34.515 10.3969C34.9582 12.3028 34.6416 14.253 33.7109 15.8866Z" fill="black"/>
<path d="M87.9596 12.8685V26.425H85.2559V12.8685H80.3931V10.3927H92.8225V12.8685H87.9596Z" fill="black"/>
<path d="M108.051 24.215C106.43 25.798 104.429 26.5895 102.042 26.5895C99.6545 26.5895 97.6536 25.798 96.0326 24.215C94.4117 22.6321 93.6012 20.6565 93.6012 18.2947C93.6012 15.933 94.4117 13.9574 96.0326 12.3744C97.6536 10.7915 99.6545 10 102.042 10C104.429 10 106.43 10.7915 108.051 12.3744C109.671 13.9574 110.482 15.933 110.482 18.2947C110.482 20.6565 109.671 22.6321 108.051 24.215ZM106.069 14.179C104.973 13.0456 103.631 12.4821 102.042 12.4821C100.452 12.4821 99.1099 13.0456 98.0145 14.179C96.9191 15.3124 96.3745 16.6864 96.3745 18.2947C96.3745 19.903 96.9191 21.2834 98.0145 22.4104C99.1099 23.5439 100.452 24.1074 102.042 24.1074C103.631 24.1074 104.973 23.5439 106.069 22.4104C107.164 21.277 107.709 19.9094 107.709 18.2947C107.709 16.6801 107.158 15.3124 106.069 14.179Z" fill="black"/>
<path d="M115.921 26.4309H113.211V10.3986H117.434L122.272 20.4663L127.11 10.3986H131.308V26.4309H128.604V13.9064L123.007 25.0315H121.493L115.921 13.9064V26.4309Z" fill="black"/>
<path d="M149.176 23.9743C150.107 23.9743 150.911 23.816 151.582 23.5058C152.254 23.1955 152.956 22.689 153.691 22.0051L155.432 23.797C153.735 25.6776 151.671 26.621 149.252 26.621C146.827 26.621 144.82 25.8422 143.218 24.2783C141.622 22.7206 140.818 20.7451 140.818 18.358C140.818 15.9708 141.635 13.9826 143.262 12.3933C144.89 10.804 146.948 10.0062 149.436 10.0062C151.918 10.0062 153.995 10.9243 155.667 12.7606L153.944 14.6412C153.178 13.9067 152.456 13.3938 151.779 13.1025C151.101 12.8112 150.297 12.6656 149.379 12.6656C147.758 12.6656 146.397 13.1912 145.295 14.2359C144.193 15.2807 143.642 16.623 143.642 18.2503C143.642 19.8776 144.187 21.239 145.282 22.3344C146.384 23.4298 147.682 23.9743 149.176 23.9743Z" fill="black"/>
<path d="M171.452 15.6034C171.452 18.2501 170.299 19.9154 167.988 20.6056L172.186 26.4309H168.748L164.917 21.0425H161.359V26.4309H158.649V10.3986H164.613C167.057 10.3986 168.811 10.8102 169.869 11.6396C170.926 12.4565 171.452 13.7798 171.452 15.6034ZM167.849 17.8702C168.4 17.3953 168.672 16.6355 168.672 15.5844C168.672 14.5396 168.387 13.8178 167.823 13.4316C167.26 13.039 166.247 12.849 164.797 12.849H161.359V18.5857H164.733C166.259 18.5857 167.298 18.3451 167.849 17.8702Z" fill="black"/>
<path d="M177.53 22.7837L175.922 26.4309H173.035L180.101 10.3986H182.988L190.055 26.4309H187.168L185.559 22.7837H177.53ZM184.457 20.2826L181.545 13.6785L178.632 20.2826H184.457Z" fill="black"/>
<path d="M194.892 12.9187V17.3257H202.003V19.8267H194.892V26.4309H192.182V10.3986H202.871L202.845 12.9187H194.892Z" fill="black"/>
<path d="M212.007 12.8685V26.425H209.303V12.8685H204.441V10.3927H216.876V12.8685H212.007Z" fill="black"/>
<path d="M66.4956 22.6138L64.8873 26.261H62L69.0664 10.2287H71.9537L79.0201 26.261H76.1327L74.5244 22.6138H66.4956ZM73.4227 20.1127L70.51 13.5086L67.5974 20.1127H73.4227Z" fill="black"/>
</svg>
