<svg width="14" height="16" viewBox="0 0 14 16" fill="none" xmlns="http://www.w3.org/2000/svg">
<path d="M12.8746 4.3655C12.8697 4.30037 12.8152 4.25 12.75 4.25H10.5V3.625C10.5 1.62612 8.87373 0 6.87498 0C4.87623 0 3.24998 1.62612 3.24998 3.625V4.25H0.999983C0.934733 4.25 0.880233 4.30037 0.875358 4.3655L0.000358383 15.8655C-0.00226662 15.9001 0.00960838 15.9344 0.0333584 15.9599C0.0569834 15.9855 0.0902333 16 0.124983 16H13.625C13.6597 16 13.693 15.9855 13.7166 15.96C13.7402 15.9345 13.7522 15.9003 13.7496 15.8656L12.8746 4.3655ZM4.24998 3.625C4.24998 2.17762 5.42748 1 6.87498 1C8.32248 1 9.49998 2.17762 9.49998 3.625V4.25H4.24998V3.625ZM3.74998 7.75C3.06061 7.75 2.49998 7.18925 2.49998 6.5C2.49998 6.00112 2.74998 5.55162 3.24998 5.35437V6.5C3.24998 6.77575 3.47436 7 3.74998 7C4.02561 7 4.24998 6.77575 4.24998 6.5V5.35512C4.74998 5.55237 4.99998 6.00525 4.99998 6.5C4.99998 7.18925 4.43936 7.75 3.74998 7.75ZM9.99998 7.75C9.31061 7.75 8.74998 7.18925 8.74998 6.5C8.74998 6.00112 8.99998 5.55162 9.49998 5.35437V6.5C9.49998 6.77575 9.72436 7 9.99998 7C10.2756 7 10.5 6.77575 10.5 6.5V5.35512C11 5.55237 11.25 6.00525 11.25 6.5C11.25 7.18925 10.6894 7.75 9.99998 7.75Z" fill="black"/>
</svg>
