<svg width="64" height="64" viewBox="0 0 64 64" fill="none" xmlns="http://www.w3.org/2000/svg">
<path d="M32 0C14.326 0 0 14.326 0 32C0 49.674 14.326 64 32 64C49.672 64 64 49.672 64 32C64 14.326 49.672 0 32 0ZM32 59.9999C16.5361 59.9999 4.00006 47.4639 4.00006 32C4.00006 16.5361 16.5361 4.00006 32 4.00006C47.4639 4.00006 59.9999 16.5361 59.9999 32C59.9999 47.4639 47.4639 59.9999 32 59.9999Z" fill="black"/>
<path d="M46.6 20.7857L26.0239 41.1777L17.4619 32.7857C16.6739 32.0037 15.3939 32.0037 14.6059 32.7857C13.8159 33.5678 13.8159 34.8337 14.6059 35.6138L24.6038 45.4117C25.4238 46.1337 26.6498 46.2137 27.4598 45.4117L49.4577 23.6137C50.2457 22.8337 50.2457 21.5657 49.4577 20.7857C48.6679 20.0057 47.39 20.0057 46.6 20.7857Z" fill="black"/>
</svg>
